<?xml version="1.0" encoding="UTF-8"?>
<svg xmlns="http://www.w3.org/2000/svg" xmlns:xlink="http://www.w3.org/1999/xlink" width="16px" height="16px" viewBox="0 0 16 16" version="1.1">
<g id="surface1">
<path style=" stroke:none;fill-rule:nonzero;fill:rgb(97.254902%,56.862745%,9.411765%);fill-opacity:1;" d="M 7.625 2.625 L 7.972656 3 L 8.347656 2.625 C 9.394531 1.605469 10.84375 1.140625 12.269531 1.378906 C 14.421875 1.738281 16 3.601562 16 5.785156 L 16 5.964844 C 16 7.261719 15.460938 8.503906 14.511719 9.386719 L 8.867188 14.660156 C 8.632812 14.878906 8.320312 15 8 15 C 7.679688 15 7.367188 14.878906 7.132812 14.660156 L 1.488281 9.386719 C 0.539062 8.503906 0 7.261719 0 5.964844 L 0 5.785156 C 0 3.601562 1.578125 1.738281 3.730469 1.378906 C 5.128906 1.140625 6.605469 1.605469 7.625 2.625 C 7.597656 2.625 7.625 2.625 7.625 2.625 Z M 7.972656 5.121094 L 6.566406 3.660156 C 5.886719 3.007812 4.925781 2.699219 3.976562 2.859375 C 2.546875 3.097656 1.5 4.335938 1.5 5.785156 L 1.5 5.964844 C 1.5 6.847656 1.867188 7.691406 2.511719 8.289062 L 8 13.414062 L 13.492188 8.289062 C 14.132812 7.691406 14.5 6.847656 14.5 5.964844 L 14.5 5.785156 C 14.5 4.335938 13.449219 3.097656 12.023438 2.859375 C 11.074219 2.699219 10.113281 3.007812 9.433594 3.660156 Z M 7.972656 5.121094 "/>
</g>
</svg>
